<?xml version="1.0" encoding="UTF-8"?><svg xmlns="http://www.w3.org/2000/svg" xmlns:xlink="http://www.w3.org/1999/xlink" fill-opacity="1" color-rendering="auto" color-interpolation="auto" stroke="black" text-rendering="auto" stroke-linecap="square" width="1083" stroke-miterlimit="10" stroke-opacity="1" shape-rendering="auto" fill="black" stroke-dasharray="none" font-weight="normal" stroke-width="1" height="1160" font-family="'Dialog'" font-style="normal" stroke-linejoin="miter" font-size="12" stroke-dashoffset="0" image-rendering="auto">
  <!--Generated by ySVG 2.5-->
  <defs id="genericDefs"/>
  <g>
    <defs id="defs1">
      <linearGradient x1="264" gradientUnits="userSpaceOnUse" x2="428" y1="276" y2="350" id="linearGradient1" spreadMethod="reflect">
        <stop stop-opacity="1" stop-color="rgb(232,238,247)" offset="0%"/>
        <stop stop-opacity="1" stop-color="rgb(183,201,227)" offset="100%"/>
      </linearGradient>
      <linearGradient x1="99.75" gradientUnits="userSpaceOnUse" x2="263.75" y1="554.5" y2="628.5" id="linearGradient2" spreadMethod="reflect">
        <stop stop-opacity="1" stop-color="rgb(232,238,247)" offset="0%"/>
        <stop stop-opacity="1" stop-color="rgb(183,201,227)" offset="100%"/>
      </linearGradient>
      <linearGradient x1="474.8" gradientUnits="userSpaceOnUse" x2="638.8" y1="554.5" y2="628.5" id="linearGradient3" spreadMethod="reflect">
        <stop stop-opacity="1" stop-color="rgb(232,238,247)" offset="0%"/>
        <stop stop-opacity="1" stop-color="rgb(183,201,227)" offset="100%"/>
      </linearGradient>
      <linearGradient x1="264" gradientUnits="userSpaceOnUse" x2="428" y1="416" y2="480" id="linearGradient4" spreadMethod="reflect">
        <stop stop-opacity="1" stop-color="rgb(232,238,247)" offset="0%"/>
        <stop stop-opacity="1" stop-color="rgb(183,201,227)" offset="100%"/>
      </linearGradient>
      <linearGradient x1="99.75" gradientUnits="userSpaceOnUse" x2="263.75" y1="703.6667" y2="767.6667" id="linearGradient5" spreadMethod="reflect">
        <stop stop-opacity="1" stop-color="rgb(232,238,247)" offset="0%"/>
        <stop stop-opacity="1" stop-color="rgb(183,201,227)" offset="100%"/>
      </linearGradient>
      <linearGradient x1="482.4427" gradientUnits="userSpaceOnUse" x2="646.4427" y1="932.9464" y2="996.9464" id="linearGradient6" spreadMethod="reflect">
        <stop stop-opacity="1" stop-color="rgb(232,238,247)" offset="0%"/>
        <stop stop-opacity="1" stop-color="rgb(183,201,227)" offset="100%"/>
      </linearGradient>
      <linearGradient x1="712.25" gradientUnits="userSpaceOnUse" x2="876.25" y1="559.5" y2="623.5" id="linearGradient7" spreadMethod="reflect">
        <stop stop-opacity="1" stop-color="rgb(232,238,247)" offset="0%"/>
        <stop stop-opacity="1" stop-color="rgb(183,201,227)" offset="100%"/>
      </linearGradient>
      <linearGradient x1="348.9074" gradientUnits="userSpaceOnUse" x2="512.9073" y1="1067.2798" y2="1141.2798" id="linearGradient8" spreadMethod="reflect">
        <stop stop-opacity="1" stop-color="rgb(232,238,247)" offset="0%"/>
        <stop stop-opacity="1" stop-color="rgb(183,201,227)" offset="100%"/>
      </linearGradient>
      <linearGradient x1="682.4073" gradientUnits="userSpaceOnUse" x2="846.4073" y1="1067.2798" y2="1141.2798" id="linearGradient9" spreadMethod="reflect">
        <stop stop-opacity="1" stop-color="rgb(232,238,247)" offset="0%"/>
        <stop stop-opacity="1" stop-color="rgb(183,201,227)" offset="100%"/>
      </linearGradient>
      <linearGradient x1="-150.25" gradientUnits="userSpaceOnUse" x2="13.75" y1="559.5" y2="623.5" id="linearGradient10" spreadMethod="reflect">
        <stop stop-opacity="1" stop-color="rgb(232,238,247)" offset="0%"/>
        <stop stop-opacity="1" stop-color="rgb(183,201,227)" offset="100%"/>
      </linearGradient>
      <linearGradient x1="501" gradientUnits="userSpaceOnUse" x2="665" y1="281" y2="345" id="linearGradient11" spreadMethod="reflect">
        <stop stop-opacity="1" stop-color="rgb(232,238,247)" offset="0%"/>
        <stop stop-opacity="1" stop-color="rgb(183,201,227)" offset="100%"/>
      </linearGradient>
      <linearGradient x1="264" gradientUnits="userSpaceOnUse" x2="428" y1="146" y2="210" id="linearGradient12" spreadMethod="reflect">
        <stop stop-opacity="1" stop-color="rgb(232,238,247)" offset="0%"/>
        <stop stop-opacity="1" stop-color="rgb(183,201,227)" offset="100%"/>
      </linearGradient>
      <linearGradient x1="482.4427" gradientUnits="userSpaceOnUse" x2="703.6863" y1="1211.613" y2="1275.613" id="linearGradient13" spreadMethod="reflect">
        <stop stop-opacity="1" stop-color="rgb(232,238,247)" offset="0%"/>
        <stop stop-opacity="1" stop-color="rgb(183,201,227)" offset="100%"/>
      </linearGradient>
      <linearGradient x1="474.8" gradientUnits="userSpaceOnUse" x2="638.8" y1="743.7232" y2="817.7232" id="linearGradient14" spreadMethod="reflect">
        <stop stop-opacity="1" stop-color="rgb(232,238,247)" offset="0%"/>
        <stop stop-opacity="1" stop-color="rgb(183,201,227)" offset="100%"/>
      </linearGradient>
      <linearGradient x1="737.5" gradientUnits="userSpaceOnUse" x2="901.5" y1="748.7232" y2="812.7232" id="linearGradient15" spreadMethod="reflect">
        <stop stop-opacity="1" stop-color="rgb(232,238,247)" offset="0%"/>
        <stop stop-opacity="1" stop-color="rgb(183,201,227)" offset="100%"/>
      </linearGradient>
      <clipPath clipPathUnits="userSpaceOnUse" id="clipPath1">
        <path d="M0 0 L1083 0 L1083 1160 L0 1160 L0 0 Z"/>
      </clipPath>
      <clipPath clipPathUnits="userSpaceOnUse" id="clipPath2">
        <path d="M-166 131 L917 131 L917 1291 L-166 1291 L-166 131 Z"/>
      </clipPath>
    </defs>
    <g fill="white" text-rendering="geometricPrecision" shape-rendering="geometricPrecision" transform="translate(166,-131)" stroke="white">
      <rect x="-166" width="1083" height="1160" y="131" clip-path="url(#clipPath2)" stroke="none"/>
    </g>
    <g fill="url(#linearGradient1)" text-rendering="geometricPrecision" shape-rendering="geometricPrecision" transform="matrix(1,0,0,1,166,-131)" stroke="url(#linearGradient1)">
      <path d="M346 276 L428 313 L346 350 L264 313 Z" clip-path="url(#clipPath2)" stroke="none"/>
    </g>
    <g text-rendering="geometricPrecision" stroke-miterlimit="1.45" shape-rendering="geometricPrecision" transform="matrix(1,0,0,1,166,-131)" stroke-linecap="butt">
      <path fill="none" d="M346 276 L428 313 L346 350 L264 313 Z" clip-path="url(#clipPath2)"/>
      <text x="319.6475" xml:space="preserve" y="317.7139" font-family="sans-serif" clip-path="url(#clipPath2)" stroke="none">isEnabled</text>
    </g>
    <g fill="url(#linearGradient2)" text-rendering="geometricPrecision" shape-rendering="geometricPrecision" transform="matrix(1,0,0,1,166,-131)" stroke="url(#linearGradient2)">
      <path d="M181.75 554.5 L263.75 591.5 L181.75 628.5 L99.75 591.5 Z" clip-path="url(#clipPath2)" stroke="none"/>
    </g>
    <g text-rendering="geometricPrecision" stroke-miterlimit="1.45" shape-rendering="geometricPrecision" transform="matrix(1,0,0,1,166,-131)" stroke-linecap="butt">
      <path fill="none" d="M181.75 554.5 L263.75 591.5 L181.75 628.5 L99.75 591.5 Z" clip-path="url(#clipPath2)"/>
      <text x="120.0361" xml:space="preserve" y="596.2139" font-family="sans-serif" clip-path="url(#clipPath2)" stroke="none">isLog2ConsoleEnabled</text>
    </g>
    <g fill="url(#linearGradient3)" text-rendering="geometricPrecision" shape-rendering="geometricPrecision" transform="matrix(1,0,0,1,166,-131)" stroke="url(#linearGradient3)">
      <path d="M556.8 554.5 L638.8 591.5 L556.8 628.5 L474.8 591.5 Z" clip-path="url(#clipPath2)" stroke="none"/>
    </g>
    <g text-rendering="geometricPrecision" stroke-miterlimit="1.45" shape-rendering="geometricPrecision" transform="matrix(1,0,0,1,166,-131)" stroke-linecap="butt">
      <path fill="none" d="M556.8 554.5 L638.8 591.5 L556.8 628.5 L474.8 591.5 Z" clip-path="url(#clipPath2)"/>
      <text x="507.4318" xml:space="preserve" y="596.2139" font-family="sans-serif" clip-path="url(#clipPath2)" stroke="none">isLog2FileEnabled</text>
    </g>
    <g fill="url(#linearGradient4)" text-rendering="geometricPrecision" shape-rendering="geometricPrecision" transform="matrix(1,0,0,1,166,-131)" stroke="url(#linearGradient4)">
      <path d="M264 416 L428 416 L428 480 L264 480 Z" clip-path="url(#clipPath2)" stroke="none"/>
    </g>
    <g text-rendering="geometricPrecision" stroke-miterlimit="1.45" shape-rendering="geometricPrecision" transform="matrix(1,0,0,1,166,-131)" stroke-linecap="butt">
      <path fill="none" d="M264 416 L428 416 L428 480 L264 480 Z" clip-path="url(#clipPath2)"/>
      <text x="303.6338" xml:space="preserve" y="452.7139" font-family="sans-serif" clip-path="url(#clipPath2)" stroke="none">Enable The Log</text>
    </g>
    <g fill="url(#linearGradient5)" text-rendering="geometricPrecision" shape-rendering="geometricPrecision" transform="matrix(1,0,0,1,166,-131)" stroke="url(#linearGradient5)">
      <path d="M99.75 703.6667 L263.75 703.6667 L263.75 767.6667 L99.75 767.6667 Z" clip-path="url(#clipPath2)" stroke="none"/>
    </g>
    <g text-rendering="geometricPrecision" stroke-miterlimit="1.45" shape-rendering="geometricPrecision" transform="matrix(1,0,0,1,166,-131)" stroke-linecap="butt">
      <path fill="none" d="M99.75 703.6667 L263.75 703.6667 L263.75 767.6667 L99.75 767.6667 Z" clip-path="url(#clipPath2)"/>
      <text x="132.7129" xml:space="preserve" y="740.3806" font-family="sans-serif" clip-path="url(#clipPath2)" stroke="none">Log to the console</text>
    </g>
    <g fill="url(#linearGradient6)" text-rendering="geometricPrecision" shape-rendering="geometricPrecision" transform="matrix(1,0,0,1,166,-131)" stroke="url(#linearGradient6)">
      <path d="M482.4427 932.9464 L646.4427 932.9464 L646.4427 996.9464 L482.4427 996.9464 Z" clip-path="url(#clipPath2)" stroke="none"/>
    </g>
    <g text-rendering="geometricPrecision" stroke-miterlimit="1.45" shape-rendering="geometricPrecision" transform="matrix(1,0,0,1,166,-131)" stroke-linecap="butt">
      <path fill="none" d="M482.4427 932.9464 L646.4427 932.9464 L646.4427 996.9464 L482.4427 996.9464 Z" clip-path="url(#clipPath2)"/>
      <text x="504.7386" xml:space="preserve" y="969.6603" font-family="sans-serif" clip-path="url(#clipPath2)" stroke="none">Ready to log to the file</text>
    </g>
    <g fill="url(#linearGradient7)" text-rendering="geometricPrecision" shape-rendering="geometricPrecision" transform="matrix(1,0,0,1,166,-131)" stroke="url(#linearGradient7)">
      <path d="M712.25 559.5 L876.25 559.5 L876.25 623.5 L712.25 623.5 Z" clip-path="url(#clipPath2)" stroke="none"/>
    </g>
    <g text-rendering="geometricPrecision" stroke-miterlimit="1.45" shape-rendering="geometricPrecision" transform="matrix(1,0,0,1,166,-131)" stroke-linecap="butt">
      <path fill="none" d="M712.25 559.5 L876.25 559.5 L876.25 623.5 L712.25 623.5 Z" clip-path="url(#clipPath2)"/>
      <text x="753.5654" xml:space="preserve" y="596.2139" font-family="sans-serif" clip-path="url(#clipPath2)" stroke="none">NoThing To Do</text>
    </g>
    <g fill="url(#linearGradient8)" text-rendering="geometricPrecision" shape-rendering="geometricPrecision" transform="matrix(1,0,0,1,166,-131)" stroke="url(#linearGradient8)">
      <path d="M430.9074 1067.2798 L512.9073 1104.2798 L430.9074 1141.2798 L348.9074 1104.2798 Z" clip-path="url(#clipPath2)" stroke="none"/>
    </g>
    <g text-rendering="geometricPrecision" stroke-miterlimit="1.45" shape-rendering="geometricPrecision" transform="matrix(1,0,0,1,166,-131)" stroke-linecap="butt">
      <path fill="none" d="M430.9074 1067.2798 L512.9073 1104.2798 L430.9074 1141.2798 L348.9074 1104.2798 Z" clip-path="url(#clipPath2)"/>
      <text x="381.882" xml:space="preserve" y="1108.9937" font-family="sans-serif" clip-path="url(#clipPath2)" stroke="none">FilePathGenerator</text>
    </g>
    <g fill="url(#linearGradient9)" text-rendering="geometricPrecision" shape-rendering="geometricPrecision" transform="matrix(1,0,0,1,166,-131)" stroke="url(#linearGradient9)">
      <path d="M764.4073 1067.2798 L846.4073 1104.2798 L764.4073 1141.2798 L682.4073 1104.2798 Z" clip-path="url(#clipPath2)" stroke="none"/>
    </g>
    <g text-rendering="geometricPrecision" stroke-miterlimit="1.45" shape-rendering="geometricPrecision" transform="matrix(1,0,0,1,166,-131)" stroke-linecap="butt">
      <path fill="none" d="M764.4073 1067.2798 L846.4073 1104.2798 L764.4073 1141.2798 L682.4073 1104.2798 Z" clip-path="url(#clipPath2)"/>
      <text x="728.3927" xml:space="preserve" y="1108.9937" font-family="sans-serif" clip-path="url(#clipPath2)" stroke="none">LogFormatter</text>
    </g>
    <g fill="url(#linearGradient10)" text-rendering="geometricPrecision" shape-rendering="geometricPrecision" transform="matrix(1,0,0,1,166,-131)" stroke="url(#linearGradient10)">
      <path d="M-150.25 559.5 L13.75 559.5 L13.75 623.5 L-150.25 623.5 Z" clip-path="url(#clipPath2)" stroke="none"/>
    </g>
    <g text-rendering="geometricPrecision" stroke-miterlimit="1.45" shape-rendering="geometricPrecision" transform="matrix(1,0,0,1,166,-131)" stroke-linecap="butt">
      <path fill="none" d="M-150.25 559.5 L13.75 559.5 L13.75 623.5 L-150.25 623.5 Z" clip-path="url(#clipPath2)"/>
      <text x="-108.9346" xml:space="preserve" y="596.2139" font-family="sans-serif" clip-path="url(#clipPath2)" stroke="none">NoThing To Do</text>
    </g>
    <g fill="url(#linearGradient11)" text-rendering="geometricPrecision" shape-rendering="geometricPrecision" transform="matrix(1,0,0,1,166,-131)" stroke="url(#linearGradient11)">
      <path d="M501 281 L665 281 L665 345 L501 345 Z" clip-path="url(#clipPath2)" stroke="none"/>
    </g>
    <g text-rendering="geometricPrecision" stroke-miterlimit="1.45" shape-rendering="geometricPrecision" transform="matrix(1,0,0,1,166,-131)" stroke-linecap="butt">
      <path fill="none" d="M501 281 L665 281 L665 345 L501 345 Z" clip-path="url(#clipPath2)"/>
      <text x="542.3154" xml:space="preserve" y="317.7139" font-family="sans-serif" clip-path="url(#clipPath2)" stroke="none">NoThing To Do</text>
    </g>
    <g fill="url(#linearGradient12)" text-rendering="geometricPrecision" shape-rendering="geometricPrecision" transform="matrix(1,0,0,1,166,-131)" stroke="url(#linearGradient12)">
      <path d="M264 146 L428 146 L428 210 L264 210 Z" clip-path="url(#clipPath2)" stroke="none"/>
    </g>
    <g text-rendering="geometricPrecision" stroke-miterlimit="1.45" shape-rendering="geometricPrecision" transform="matrix(1,0,0,1,166,-131)" stroke-linecap="butt">
      <path fill="none" d="M264 146 L428 146 L428 210 L264 210 Z" clip-path="url(#clipPath2)"/>
      <text x="335.9893" xml:space="preserve" y="182.7139" font-family="sans-serif" clip-path="url(#clipPath2)" stroke="none">Log</text>
    </g>
    <g fill="url(#linearGradient13)" text-rendering="geometricPrecision" shape-rendering="geometricPrecision" transform="matrix(1,0,0,1,166,-131)" stroke="url(#linearGradient13)">
      <path d="M482.4427 1211.613 L703.6863 1211.613 L703.6863 1275.613 L482.4427 1275.613 Z" clip-path="url(#clipPath2)" stroke="none"/>
    </g>
    <g text-rendering="geometricPrecision" stroke-miterlimit="1.45" shape-rendering="geometricPrecision" transform="matrix(1,0,0,1,166,-131)" stroke-linecap="butt">
      <path fill="none" d="M482.4427 1211.613 L703.6863 1211.613 L703.6863 1275.613 L482.4427 1275.613 Z" clip-path="url(#clipPath2)"/>
      <text x="557.0381" xml:space="preserve" y="1248.3269" font-family="sans-serif" clip-path="url(#clipPath2)" stroke="none">Log to the file</text>
    </g>
    <g fill="url(#linearGradient14)" text-rendering="geometricPrecision" shape-rendering="geometricPrecision" transform="matrix(1,0,0,1,166,-131)" stroke="url(#linearGradient14)">
      <path d="M556.8 743.7232 L638.8 780.7232 L556.8 817.7232 L474.8 780.7232 Z" clip-path="url(#clipPath2)" stroke="none"/>
    </g>
    <g text-rendering="geometricPrecision" stroke-miterlimit="1.45" shape-rendering="geometricPrecision" transform="matrix(1,0,0,1,166,-131)" stroke-linecap="butt">
      <path fill="none" d="M556.8 743.7232 L638.8 780.7232 L556.8 817.7232 L474.8 780.7232 Z" clip-path="url(#clipPath2)"/>
      <text x="538.8" xml:space="preserve" y="785.4371" font-family="sans-serif" clip-path="url(#clipPath2)" stroke="none">isFIlter</text>
    </g>
    <g fill="url(#linearGradient15)" text-rendering="geometricPrecision" shape-rendering="geometricPrecision" transform="matrix(1,0,0,1,166,-131)" stroke="url(#linearGradient15)">
      <path d="M737.5 748.7232 L901.5 748.7232 L901.5 812.7232 L737.5 812.7232 Z" clip-path="url(#clipPath2)" stroke="none"/>
    </g>
    <g text-rendering="geometricPrecision" stroke-miterlimit="1.45" shape-rendering="geometricPrecision" transform="matrix(1,0,0,1,166,-131)" stroke-linecap="butt">
      <path fill="none" d="M737.5 748.7232 L901.5 748.7232 L901.5 812.7232 L737.5 812.7232 Z" clip-path="url(#clipPath2)"/>
      <text x="778.8154" xml:space="preserve" y="785.4371" font-family="sans-serif" clip-path="url(#clipPath2)" stroke="none">NoThing To Do</text>
    </g>
    <g text-rendering="geometricPrecision" stroke-miterlimit="1.45" shape-rendering="geometricPrecision" transform="matrix(1,0,0,1,166,-131)" stroke-linecap="butt">
      <path fill="none" d="M346 350.0129 L346 407.9915" clip-path="url(#clipPath2)"/>
    </g>
    <g text-rendering="geometricPrecision" stroke-miterlimit="1.45" shape-rendering="geometricPrecision" transform="matrix(1,0,0,1,166,-131)" stroke-linecap="butt">
      <path d="M346 415.9915 L351 403.9915 L346 406.9915 L341 403.9915 Z" clip-path="url(#clipPath2)" stroke="none"/>
      <text x="305.6611" xml:space="preserve" y="387.7139" font-family="sans-serif" clip-path="url(#clipPath2)" stroke="none">Yes</text>
      <path fill="none" d="M263.9953 448 L181.75 448 L181.75 546.4689" clip-path="url(#clipPath2)"/>
      <path d="M181.75 554.4689 L186.75 542.4689 L181.75 545.4689 L176.75 542.4689 Z" clip-path="url(#clipPath2)" stroke="none"/>
      <path fill="none" d="M428.0092 448 L556.8 448 L556.8 546.4689" clip-path="url(#clipPath2)"/>
      <path d="M556.8 554.4689 L561.8 542.4689 L556.8 545.4689 L551.8 542.4689 Z" clip-path="url(#clipPath2)" stroke="none"/>
      <path fill="none" d="M181.75 628.492 L181.75 663.5833 L181.75 663.5833 L181.75 695.6727" clip-path="url(#clipPath2)"/>
      <path d="M181.75 703.6727 L186.75 691.6727 L181.75 694.6727 L176.75 691.6727 Z" clip-path="url(#clipPath2)" stroke="none"/>
      <text x="141.4111" xml:space="preserve" y="657.9308" font-family="sans-serif" clip-path="url(#clipPath2)" stroke="none">Yes</text>
      <path fill="none" d="M638.8002 591.5 L704.2366 591.5" clip-path="url(#clipPath2)"/>
      <path d="M712.2366 591.5 L700.2366 586.5 L703.2366 591.5 L700.2366 596.5 Z" clip-path="url(#clipPath2)" stroke="none"/>
      <text x="667.8551" xml:space="preserve" y="626.2139" font-family="sans-serif" clip-path="url(#clipPath2)" stroke="none">No</text>
      <path fill="none" d="M482.4502 964.9464 L430.9074 964.9464 L430.9074 1059.3033" clip-path="url(#clipPath2)"/>
      <path d="M430.9074 1067.3033 L435.9074 1055.3033 L430.9074 1058.3033 L425.9074 1055.3033 Z" clip-path="url(#clipPath2)" stroke="none"/>
      <path fill="none" d="M646.4106 964.9464 L764.4073 964.9464 L764.4073 1059.3033" clip-path="url(#clipPath2)"/>
      <path d="M764.4073 1067.3033 L769.4073 1055.3033 L764.4073 1058.3033 L759.4073 1055.3033 Z" clip-path="url(#clipPath2)" stroke="none"/>
      <path fill="none" d="M99.7493 591.5 L21.7399 591.5" clip-path="url(#clipPath2)"/>
      <path d="M13.7399 591.5 L25.7399 596.5 L22.7399 591.5 L25.7399 586.5 Z" clip-path="url(#clipPath2)" stroke="none"/>
      <text x="49.0801" xml:space="preserve" y="566.2139" font-family="sans-serif" clip-path="url(#clipPath2)" stroke="none">No</text>
      <path fill="none" d="M428.0184 313 L493.0066 313" clip-path="url(#clipPath2)"/>
      <path d="M501.0066 313 L489.0066 308 L492.0066 313 L489.0066 318 Z" clip-path="url(#clipPath2)" stroke="none"/>
      <text x="456.8301" xml:space="preserve" y="347.7139" font-family="sans-serif" clip-path="url(#clipPath2)" stroke="none">No</text>
      <path fill="none" d="M346 210.0032 L346 268.0107" clip-path="url(#clipPath2)"/>
      <path d="M346 276.0107 L351 264.0107 L346 267.0107 L341 264.0107 Z" clip-path="url(#clipPath2)" stroke="none"/>
      <path fill="none" d="M430.9074 1141.2561 L430.9074 1243.613 L474.4128 1243.613" clip-path="url(#clipPath2)"/>
      <path d="M482.4128 1243.613 L470.4128 1238.613 L473.4128 1243.613 L470.4128 1248.613 Z" clip-path="url(#clipPath2)" stroke="none"/>
      <text x="378.8966" xml:space="preserve" y="1204.3356" font-family="sans-serif" clip-path="url(#clipPath2)" stroke="none">FilePath</text>
      <path fill="none" d="M764.4073 1141.2561 L764.4073 1243.613 L711.7095 1243.613" clip-path="url(#clipPath2)"/>
      <path d="M703.7095 1243.613 L715.7095 1248.613 L712.7095 1243.613 L715.7095 1238.613 Z" clip-path="url(#clipPath2)" stroke="none"/>
      <text x="724.7335" xml:space="preserve" y="1204.3356" font-family="sans-serif" clip-path="url(#clipPath2)" stroke="none">log </text>
      <path fill="none" d="M556.8 628.5038 L556.8 735.7461" clip-path="url(#clipPath2)"/>
      <path d="M556.8 743.7461 L561.8 731.7461 L556.8 734.7461 L551.8 731.7461 Z" clip-path="url(#clipPath2)" stroke="none"/>
      <text x="516.4611" xml:space="preserve" y="690.8254" font-family="sans-serif" clip-path="url(#clipPath2)" stroke="none">Yes</text>
      <path fill="none" d="M556.8 817.7486 L556.8 924.9557" clip-path="url(#clipPath2)"/>
      <path d="M556.8 932.9557 L561.8 920.9557 L556.8 923.9557 L551.8 920.9557 Z" clip-path="url(#clipPath2)" stroke="none"/>
      <text x="519.1301" xml:space="preserve" y="880.0486" font-family="sans-serif" clip-path="url(#clipPath2)" stroke="none">No</text>
      <path fill="none" d="M638.7975 780.7232 L729.4869 780.7232" clip-path="url(#clipPath2)"/>
      <path d="M737.4869 780.7232 L725.4869 775.7232 L728.4869 780.7232 L725.4869 785.7232 Z" clip-path="url(#clipPath2)" stroke="none"/>
      <text x="677.8112" xml:space="preserve" y="815.4371" font-family="sans-serif" clip-path="url(#clipPath2)" stroke="none">Yes</text>
    </g>
  </g>
</svg>
